<?xml version="1.0" encoding="UTF-8" standalone="no"?>
<!-- Generator: Adobe Illustrator 14.0.0, SVG Export Plug-In . SVG Version: 6.00 Build 43363)  -->

<svg
   xmlns:dc="http://purl.org/dc/elements/1.1/"
   xmlns:cc="http://creativecommons.org/ns#"
   xmlns:rdf="http://www.w3.org/1999/02/22-rdf-syntax-ns#"
   xmlns:svg="http://www.w3.org/2000/svg"
   xmlns="http://www.w3.org/2000/svg"
   xmlns:sodipodi="http://sodipodi.sourceforge.net/DTD/sodipodi-0.dtd"
   xmlns:inkscape="http://www.inkscape.org/namespaces/inkscape"
   version="1.1"
   x="0px"
   y="0px"
   width="586px"
   height="595.281px"
   viewBox="0 0 586 595.281"
   enable-background="new 0 0 586 595.281"
   xml:space="preserve"
   id="svg2"
   inkscape:version="0.91 r13725"
   sodipodi:docname="Retirement.svg"><metadata
     id="metadata62"><rdf:RDF><cc:Work
         rdf:about=""><dc:format>image/svg+xml</dc:format><dc:type
           rdf:resource="http://purl.org/dc/dcmitype/StillImage" /></cc:Work></rdf:RDF></metadata><defs
     id="defs60" /><sodipodi:namedview
     pagecolor="#ffffff"
     bordercolor="#666666"
     borderopacity="1"
     objecttolerance="10"
     gridtolerance="10"
     guidetolerance="10"
     inkscape:pageopacity="0"
     inkscape:pageshadow="2"
     inkscape:window-width="1440"
     inkscape:window-height="785"
     id="namedview58"
     showgrid="false"
     inkscape:zoom="0.90509668"
     inkscape:cx="318.32326"
     inkscape:cy="293.11889"
     inkscape:window-x="0"
     inkscape:window-y="1"
     inkscape:window-maximized="1"
     inkscape:current-layer="svg2" /><g
     id="g4238"><g
       id="Layer_1_2_"><g
         id="Layer_1_1_"><path
           d="m 6.202,9.88 576.313,0 0,577.61 -576.311,0 L 6.202,9.88 Z"
           id="path7"
           inkscape:connector-curvature="0"
           style="fill:none;stroke:#000000;stroke-width:2" /><path
           d="m 481.153,69.371 c 0,-14.328 11.916,-25.939 26.613,-25.939 7.061,0 13.828,2.73 18.818,7.597 4.991,4.865 7.797,11.464 7.797,18.344 0,14.328 -11.916,25.941 -26.616,25.941 -14.696,-0.002 -26.612,-11.617 -26.612,-25.943 l 0,0 z"
           id="path9"
           inkscape:connector-curvature="0"
           style="fill:none;stroke:#000000;stroke-width:2" /></g></g><polygon
       points="127,480.64 104.5,516.64 127,552.64 37,516.64 "
       id="polygon12"
       style="fill:none;stroke:#000000;stroke-width:2" /><polygon
       points="451,480.64 473.5,516.64 451,552.64 541,516.64 "
       id="polygon14"
       style="fill:none;stroke:#000000;stroke-width:2" /><rect
       x="190"
       y="489.64001"
       width="198"
       height="54"
       id="rect16"
       style="fill:none;stroke:#000000;stroke-width:2" /><polyline
       points="469,237.64 469,453.64 109,453.64 109,237.64  "
       id="polyline18"
       style="fill:none;stroke:#000000;stroke-width:2" /><polygon
       points="100,246.64 289,57.64 478,246.64 496,228.64 289,21.64 82,228.64 "
       id="polygon20"
       style="fill:none;stroke:#000000;stroke-width:2" /><rect
       x="145"
       y="237.64"
       width="288"
       height="45"
       id="rect22"
       style="fill:none;stroke:#000000;stroke-width:2" /><rect
       x="253"
       y="309.64001"
       width="72"
       height="144"
       id="rect24"
       style="fill:none;stroke:#000000;stroke-width:2" /><rect
       x="145"
       y="291.64001"
       width="72"
       height="72"
       id="rect26"
       style="fill:none;stroke:#000000;stroke-width:2" /><line
       x1="181"
       y1="291.64001"
       x2="181"
       y2="363.64001"
       id="line28"
       style="fill:none;stroke:#000000;stroke-width:2" /><line
       x1="217"
       y1="327.64001"
       x2="145"
       y2="327.64001"
       id="line30"
       style="fill:none;stroke:#000000;stroke-width:2" /><rect
       x="361"
       y="291.64001"
       width="72"
       height="72"
       id="rect32"
       style="fill:none;stroke:#000000;stroke-width:2" /><line
       x1="397"
       y1="291.64001"
       x2="397"
       y2="363.64001"
       id="line34"
       style="fill:none;stroke:#000000;stroke-width:2" /><line
       x1="433"
       y1="327.64001"
       x2="361"
       y2="327.64001"
       id="line36"
       style="fill:none;stroke:#000000;stroke-width:2" /><rect
       x="253"
       y="156.64"
       width="72"
       height="72"
       id="rect38"
       style="fill:none;stroke:#000000;stroke-width:2" /><line
       x1="289"
       y1="156.64"
       x2="289"
       y2="228.64"
       id="line40"
       style="fill:none;stroke:#000000;stroke-width:2" /><line
       x1="325"
       y1="192.64"
       x2="253"
       y2="192.64"
       id="line42"
       style="fill:none;stroke:#000000;stroke-width:2" /><line
       x1="109"
       y1="372.64001"
       x2="6.204"
       y2="372.64001"
       id="line44"
       style="fill:none;stroke:#000000;stroke-width:2" /><line
       x1="469"
       y1="372.64001"
       x2="582.51501"
       y2="372.64001"
       id="line46"
       style="fill:none;stroke:#000000;stroke-width:2" /><path
       d="m 256.5002,523.81339 q -0.04,0.08 -0.12,0.28 -0.08,0.16 -0.16,0.32 -0.08,0.16 -0.28,0.4 -0.2,0.24 -0.4,0.48 l -0.52,0.6 q -0.36,0.4 -0.6,0.6 -0.24,0.2 -0.56,0.52 -0.28,0.28 -0.72,0.72 -0.4,0.4 -0.84,0.8 -0.44,0.4 -0.88,0.72 -0.44,0.32 -0.8,0.44 -0.28,0.08 -0.52,0.16 -0.2,0.08 -0.4,0.16 -0.32,0.16 -0.72,0.16 -0.28,0 -0.48,0.04 -0.2,0.04 -0.44,0.08 -0.12,0.04 -0.24,0.04 -0.08,0.04 -0.2,0.04 -0.08,0 -0.2,-0.04 -0.08,0 -0.16,0 -0.96,-0.24 -1.4,-0.64 -0.44,-0.32 -0.44,-0.92 0,-0.24 0.04,-0.4 0.08,-0.52 0.2,-0.8 0.12,-0.32 0.24,-0.52 0.16,-0.28 0.4,-0.52 0.24,-0.24 0.44,-0.44 0.52,-0.6 0.8,-1.32 0.2,-0.44 0.24,-0.84 0.08,-0.44 0.08,-0.8 0,-0.68 -0.24,-0.96 -0.2,-0.28 -0.8,-0.6 -0.32,-0.12 -0.56,-0.12 -0.24,0 -0.32,0.04 -0.12,0 -0.36,0.08 l -0.4,0 q -0.4,0 -0.72,0.24 -0.32,0.2 -0.52,0.52 -0.12,0.2 -0.24,0.44 -0.08,0.24 -0.16,0.44 l -0.4,0.88 q -0.36,0.68 -1.04,1.64 -0.32,0.4 -0.44,0.6 -0.12,0.2 -0.28,0.4 -0.12,0.2 -0.32,0.4 -0.16,0.16 -0.56,0.52 -0.84,0.76 -1.56,0.92 -0.36,0.12 -0.72,0.16 -0.36,0.08 -0.72,0.16 -0.24,0.08 -0.44,0.08 -0.2,0 -0.4,0 l -1.2,0.08 q -0.52,0 -1.24,-0.24 -0.68,-0.24 -1.12,-0.44 l -0.48,-0.16 q -0.08,-0.08 -0.24,-0.16 -0.12,-0.08 -0.28,-0.2 -0.12,-0.12 -0.44,-0.36 -0.56,-0.44 -0.8,-0.68 -0.24,-0.28 -0.56,-0.56 -0.44,-0.44 -0.68,-0.8 -0.24,-0.4 -0.24,-1 0,-0.2 0,-0.4 0,-0.2 0.08,-0.44 0.2,-1.04 1.08,-1.76 0.92,-0.72 1.8,-1.04 0.4,-0.16 0.68,-0.24 0.28,-0.08 0.52,-0.12 0.24,-0.08 0.48,-0.12 0.28,-0.08 0.64,-0.16 0.28,-0.04 0.6,-0.04 0.36,-0.04 0.72,-0.04 l 0.52,0 q 1.12,0.08 1.52,0.36 0.2,0.12 0.24,0.44 0.08,0.28 0.08,0.64 0,0.48 -0.12,1 -0.12,0.48 -0.44,0.8 -0.16,0.16 -0.28,0.32 -0.08,0.12 -0.2,0.28 -0.24,0.32 -0.44,0.68 -0.2,0.32 -0.56,0.6 -0.28,0.2 -0.48,0.32 -0.16,0.08 -0.48,0.16 -0.04,0 -0.08,0.04 -0.04,0 -0.08,0 -0.32,0 -0.64,-0.32 -0.28,-0.32 -0.4,-0.76 -0.08,-0.48 -0.08,-0.68 0.12,-0.44 0.24,-0.68 0.12,-0.24 0.16,-0.36 0.04,-0.08 0.04,-0.24 0,-0.44 -0.52,-0.56 -0.32,-0.12 -0.56,-0.12 -0.2,0 -0.4,0.04 -0.16,0.04 -0.36,0.12 l -0.4,0.2 q -0.84,0.44 -0.84,1.4 0,0.48 0.16,0.84 0.12,0.36 0.44,0.72 0.32,0.36 0.68,0.68 0.4,0.28 0.8,0.52 0.44,0.24 0.8,0.32 0.48,0.12 0.84,0.2 0.4,0.04 0.72,0.08 0.32,0.04 0.52,0.04 0.2,0 0.4,0 0.68,0 1.36,-0.36 0.72,-0.36 1.24,-0.92 0.48,-0.56 0.8,-1.08 0.32,-0.56 0.64,-1.08 0.2,-0.36 0.44,-0.96 0.28,-0.64 0.28,-1.32 0,-0.36 -0.12,-0.72 -0.12,-0.36 -0.12,-0.68 0,-0.28 0.04,-0.44 0.04,-0.32 0.08,-0.6 0.08,-0.28 0.16,-0.64 0.08,-0.4 0.16,-0.92 0.08,-0.56 0.2,-1.2 0.08,-0.48 0.24,-0.92 0.16,-0.48 0.32,-0.92 0.2,-0.56 0.36,-0.92 0.2,-0.4 0.52,-0.72 0.28,-0.32 0.48,-0.64 0.2,-0.36 0.4,-0.68 0.24,-0.4 0.36,-0.64 0.16,-0.28 0.24,-0.48 0.08,-0.2 0.16,-0.32 0.08,-0.16 0.24,-0.36 0.32,-0.32 0.4,-0.56 0.12,-0.28 0.12,-0.48 0,-0.4 -0.36,-0.56 -0.36,-0.2 -0.76,-0.28 -0.32,-0.04 -0.76,-0.08 -0.4,-0.04 -0.84,-0.04 -0.64,0 -1.16,0.12 -0.2,0.04 -0.32,0.08 -0.12,0 -0.28,0 -0.08,0 -0.2,0 -0.08,-0.04 -0.2,-0.04 -0.08,0 -0.2,0 -0.08,-0.04 -0.16,-0.04 -0.4,0 -0.92,0.16 -0.32,0.08 -0.8,0.28 -0.48,0.16 -0.96,0.32 -0.68,0.24 -1.24,0.56 -0.56,0.28 -0.72,0.68 -0.08,0.32 -0.08,0.4 0,0.52 0.56,0.8 0.12,0.08 0.28,0.16 0.16,0.04 0.36,0.12 l 0.72,0.2 q 0.76,0.24 1.36,0.6 0.64,0.32 0.92,0.76 0.16,0.2 0.32,0.44 0.16,0.24 0.24,0.48 0.12,0.24 0.12,0.6 0,0.28 -0.12,0.64 -0.2,0.8 -0.68,1.32 -0.44,0.48 -1.36,0.8 -0.8,0.24 -1.68,0.24 -0.6,0 -1.12,-0.08 -0.48,-0.12 -0.76,-0.28 -0.48,-0.32 -1,-0.76 -0.52,-0.48 -0.96,-0.96 -0.32,-0.32 -0.56,-0.68 -0.2,-0.4 -0.2,-0.84 0,-0.28 0.12,-0.6 0.08,-0.32 0.2,-0.88 0.16,-0.56 0.36,-1.2 0.2,-0.72 0.48,-1.24 0.32,-0.52 0.72,-0.68 0.44,-0.2 0.84,-0.44 0.4,-0.28 0.8,-0.56 0.36,-0.24 0.64,-0.4 0.28,-0.2 0.56,-0.28 0.32,-0.08 0.6,-0.24 0.32,-0.2 0.64,-0.4 0.32,-0.2 0.6,-0.32 0.32,-0.16 0.68,-0.2 0.44,-0.04 1.08,-0.16 0.64,-0.12 1.32,-0.24 0.32,-0.08 0.56,-0.12 0.28,-0.04 0.56,-0.08 l 0.96,-0.24 q 0.36,-0.12 0.76,-0.12 0.68,0 1.32,0.2 0.68,0.2 1.32,0.2 0.28,0 0.56,0 0.32,-0.04 0.64,-0.04 0.2,0 0.36,0 0.16,0 0.36,0.04 0.52,0.08 1.04,0.24 0.52,0.16 0.96,0.52 0.48,0.4 0.68,0.68 0.24,0.24 0.32,0.44 l 0.2,0.48 q 0.04,0.12 0.12,0.28 0.08,0.12 0.16,0.28 0.12,0.16 0.16,0.4 0.04,0.24 0.04,0.56 0,0.56 -0.16,1.24 -0.12,0.64 -0.44,1.12 -0.24,0.44 -0.4,0.8 -0.16,0.36 -0.28,0.68 l -0.28,1.12 q -0.04,0.2 -0.32,0.6 -0.12,0.2 -0.28,0.44 -0.12,0.2 -0.28,0.4 -0.32,0.48 -0.6,0.92 -0.24,0.44 -0.28,0.76 -0.08,0.48 -0.32,0.92 -0.24,0.44 -0.48,0.76 -0.08,0.16 -0.08,0.24 0,0.44 0.8,0.76 0.24,0.08 0.56,0.24 0.32,0.16 0.48,0.4 0.16,0.2 0.16,0.64 0,0.16 -0.04,0.32 0,0.16 -0.04,0.36 -0.08,0.44 -0.2,0.88 -0.08,0.44 -0.16,0.84 -0.08,0.32 -0.2,0.6 -0.08,0.24 -0.2,0.44 l -0.32,0.48 q -0.12,0.2 -0.28,0.6 -0.12,0.36 -0.12,0.72 0,0.24 0.08,0.44 0.12,0.2 0.4,0.28 0.32,0.08 0.48,0.08 0.16,-0.04 0.4,-0.04 0.28,0 0.52,-0.08 0.24,-0.12 0.44,-0.2 0.24,-0.12 0.48,-0.28 0.24,-0.16 0.44,-0.28 0.08,-0.04 0.24,-0.16 0.16,-0.12 0.32,-0.24 0.24,-0.24 0.56,-0.48 l 0.44,-0.36 q 0.12,-0.16 0.4,-0.4 l 0.84,-0.88 q 0.2,-0.24 0.28,-0.32 0.12,-0.12 0.28,-0.28 0.2,-0.28 0.44,-0.36 0.28,0 0.28,0.24 0,0.16 -0.04,0.24 z m -6.72,-13.64 q -0.28,-0.6 -0.92,-0.6 -0.08,0 -0.12,0.04 -0.04,0 -0.12,0 -0.44,0.08 -0.84,0.56 -0.4,0.48 -0.64,0.96 -0.2,0.4 -0.48,0.96 -0.28,0.56 -0.6,0.84 -0.2,0.12 -0.32,0.36 -0.12,0.2 -0.24,0.44 -0.16,0.24 -0.28,0.52 -0.12,0.28 -0.32,0.6 -0.32,0.68 -0.48,1.2 -0.16,0.48 -0.24,1.08 -0.04,0.2 -0.08,0.4 0,0.16 0,0.36 0,0.48 0.16,0.76 0.16,0.24 0.28,0.4 0.12,0.12 0.4,0.12 0.28,0 0.44,-0.04 0.4,-0.08 0.56,-0.16 0.2,-0.12 0.36,-0.32 0.12,-0.12 0.32,-0.48 0.24,-0.36 0.4,-0.56 0.2,-0.32 0.32,-0.52 0.16,-0.2 0.28,-0.44 0.2,-0.32 0.44,-1.08 l 0.2,-0.56 0.36,-0.6 q 0.2,-0.36 0.44,-1.04 0.28,-0.72 0.4,-1.16 0.04,-0.24 0.12,-0.48 0.08,-0.28 0.16,-0.56 0.12,-0.36 0.12,-0.68 0,-0.16 -0.08,-0.32 z m -11.8,3.92 q -0.28,-0.68 -0.88,-1.04 -0.56,-0.36 -1.12,-0.6 -0.16,-0.08 -0.44,-0.08 -0.8,0 -0.8,0.92 l 0,0.2 q 0.04,0.24 0.08,0.48 0.04,0.2 0.12,0.4 0.08,0.2 0.2,0.44 0.16,0.2 0.4,0.52 0.28,0.4 0.44,0.56 0.2,0.12 0.36,0.16 0.08,0.04 0.2,0.04 0.12,0 0.2,-0.04 0.08,0 0.4,-0.08 0.52,-0.08 0.76,-0.36 0.24,-0.32 0.24,-0.76 0,-0.44 -0.16,-0.76 z"
       style="font-style:normal;font-variant:normal;font-weight:normal;font-stretch:normal;font-size:medium;font-family:'Old Man Eloquent';-inkscape-font-specification:'Old Man Eloquent'"
       id="path4216"
       inkscape:connector-curvature="0" /><path
       d="m 274.07645,523.53339 q 0,0.2 -0.08,0.4 -0.08,0.2 -0.16,0.32 l -0.44,0.64 q -0.04,0.08 -0.28,0.32 -0.08,0.08 -0.2,0.24 -0.12,0.12 -0.2,0.2 -0.28,0.32 -0.52,0.6 -0.2,0.24 -0.52,0.52 -0.16,0.12 -0.32,0.24 -0.12,0.12 -0.32,0.2 -0.16,0.12 -0.32,0.24 -0.12,0.12 -0.24,0.28 -0.08,0.16 -0.32,0.24 -0.2,0.08 -0.52,0.2 -0.32,0.12 -0.72,0.2 -0.36,0.12 -0.64,0.28 -0.44,0.2 -0.84,0.44 -0.4,0.24 -0.68,0.56 -0.2,0.24 -0.88,0.24 -0.16,0 -0.32,0 -0.12,0 -0.32,-0.04 l -1.28,0 q -0.4,0 -0.96,-0.12 -0.52,-0.08 -1.28,-0.32 -0.56,-0.2 -1.04,-0.4 -0.48,-0.2 -0.8,-0.44 -0.68,-0.48 -1.32,-1.12 -0.6,-0.64 -0.8,-1.52 -0.08,-0.28 -0.12,-0.48 -0.04,-0.24 -0.04,-0.44 0,-0.52 0.32,-0.88 0.16,-0.2 0.4,-0.52 0.28,-0.32 0.52,-0.64 0.28,-0.36 0.48,-0.72 0.2,-0.36 0.24,-0.64 0,-0.28 -0.12,-0.52 -0.12,-0.24 -0.32,-0.48 l -0.4,-0.44 q -0.12,-0.16 -0.24,-0.28 -0.12,-0.16 -0.2,-0.36 -0.48,-0.8 -0.72,-1.6 -0.04,-0.12 -0.08,-0.2 0,-0.08 0,-0.16 0,-0.08 0,-0.08 0.04,-0.04 0.04,-0.12 l 0.16,-0.72 q 0.08,-0.28 0.16,-0.6 0.08,-0.32 0.24,-0.64 l 0.68,-1.52 q 0.2,-0.52 0.48,-1.04 0.28,-0.52 0.48,-1.08 0.28,-0.76 0.64,-1.36 0.36,-0.64 0.72,-1.12 0.44,-0.64 0.96,-1.04 0.52,-0.44 0.8,-0.56 0.32,-0.12 0.56,-0.32 0.24,-0.2 0.48,-0.44 0.2,-0.2 0.44,-0.36 0.28,-0.2 0.72,-0.4 0.48,-0.2 0.92,-0.36 0.44,-0.2 0.88,-0.36 0.52,-0.24 0.92,-0.24 0.2,0 0.28,0.04 0.32,0.08 0.64,0.28 0.36,0.16 0.72,0.32 0.4,0.2 0.72,0.36 0.32,0.12 0.52,0.16 0.12,0.04 0.36,0.32 0.28,0.24 0.56,0.64 0.32,0.36 0.6,0.8 0.28,0.44 0.48,0.8 0.24,0.52 0.32,1.4 0,0.44 0,0.8 0,0.36 0.08,0.64 l 0,0.16 q 0,0.2 -0.04,0.4 -0.04,0.2 -0.12,0.4 -0.08,0.36 -0.2,0.68 -0.08,0.32 -0.12,0.68 0,0.08 0,0.2 0,0.08 -0.04,0.2 -0.12,0.96 -1.04,1.56 -0.6,0.4 -1.04,0.6 -0.4,0.2 -0.84,0.2 -0.24,0 -0.36,-0.04 -0.12,-0.04 -0.32,-0.04 -0.32,0 -0.6,0.08 -0.28,0.08 -0.56,0.16 -0.2,0.08 -0.4,0.12 -0.16,0.04 -0.32,0.04 -0.24,0 -0.48,-0.12 -0.24,-0.16 -0.4,-0.44 l -0.4,-0.88 q -0.2,-0.44 -0.28,-0.84 -0.08,-0.44 -0.08,-0.76 l 0,-0.16 q 0,-0.28 0.2,-0.68 0.2,-0.44 0.6,-0.84 0.12,-0.12 0.2,-0.24 0.12,-0.12 0.2,-0.24 l 0.32,-0.32 q 0.28,-0.28 0.84,-0.48 0.36,-0.12 0.84,-0.12 0.28,0 0.52,0.04 0.28,0 0.48,0.04 l 0.24,0 q 0.48,0 0.68,-0.48 0.08,-0.24 0.08,-0.4 0,-0.2 -0.04,-0.36 -0.04,-0.2 -0.08,-0.32 -0.16,-0.52 -0.48,-0.8 -0.32,-0.32 -0.64,-0.48 -0.36,-0.2 -0.64,-0.24 l -0.36,-0.12 q -0.36,-0.12 -0.72,-0.12 -0.8,0 -1.56,0.44 -0.76,0.4 -1.24,0.92 l -0.72,0.68 q -0.16,0.16 -0.32,0.32 -0.12,0.12 -0.24,0.32 -0.48,0.64 -0.72,1.92 -0.08,0.4 -0.36,0.8 -0.24,0.4 -0.44,0.72 -0.2,0.28 -0.44,0.52 -0.2,0.24 -0.4,0.52 -0.48,0.56 -0.6,0.88 -0.08,0.28 -0.24,0.64 -0.12,0.36 -0.28,0.8 -0.08,0.2 -0.12,0.48 -0.04,0.24 -0.04,0.52 0,0.48 0.2,0.76 0.24,0.32 0.56,0.68 0.32,0.32 0.84,0.32 0.24,0 0.72,-0.2 0.56,-0.28 1.28,-0.28 0.8,0 1.12,0.24 0.2,0.16 0.48,0.4 0.28,0.2 0.28,0.52 0,0.16 -0.12,0.32 -0.36,0.48 -0.84,0.72 -0.48,0.2 -0.92,0.4 -0.52,0.16 -1.08,0.52 -0.56,0.32 -0.76,0.56 -0.12,0.16 -0.36,0.52 -0.2,0.36 -0.28,0.92 -0.04,0.16 -0.04,0.56 0,0.32 0.04,0.64 0.04,0.28 0.12,0.56 0.2,0.56 0.68,0.84 0.52,0.24 1,0.32 0.32,0.08 0.68,0.16 0.36,0.04 0.8,0.12 0.2,0.04 0.72,0.04 0.2,0 0.4,0 0.24,0 0.48,-0.04 0.32,-0.04 1.12,-0.16 0.84,-0.16 1.4,-0.44 0.16,-0.08 0.36,-0.12 0.2,-0.08 0.4,-0.16 l 0.72,-0.36 q 0.24,-0.12 0.48,-0.24 0.24,-0.12 0.36,-0.2 0.44,-0.32 0.68,-0.56 0.28,-0.28 0.6,-0.6 0.16,-0.12 0.28,-0.24 0.12,-0.16 0.24,-0.32 l 0.6,-0.64 0.44,-0.4 q 0.16,-0.12 0.28,-0.12 0.12,0 0.16,0.08 0.04,0.08 0.04,0.12 z m -3.92,-9.04 q 0.04,-0.12 0.04,-0.28 0,-0.48 -0.44,-0.76 -0.44,-0.32 -0.92,-0.4 l -0.16,0 q -0.64,0 -1,0.36 -0.4,0.4 -0.4,0.88 0,0.24 0.12,0.4 0.08,0.12 0.16,0.28 0.12,0.12 0.24,0.2 0.16,0.12 0.32,0.16 0.2,0 0.4,0 0.48,-0.04 0.96,-0.16 0.48,-0.12 0.68,-0.68 z"
       style="font-style:normal;font-variant:normal;font-weight:normal;font-stretch:normal;font-size:medium;font-family:'Old Man Eloquent';-inkscape-font-specification:'Old Man Eloquent'"
       id="path4218"
       inkscape:connector-curvature="0" /><path
       d="m 295.53833,505.17339 q 0.04,0.12 0.04,0.24 0.04,0.12 0.04,0.32 0,0.32 -0.08,0.72 -0.08,0.4 -0.32,0.88 -0.32,0.64 -0.76,1.04 -0.4,0.36 -1.08,0.52 -0.32,0.08 -0.56,0.12 -0.24,0 -0.56,0.08 -0.4,0.08 -0.8,0.24 -0.4,0.12 -0.64,0.4 -0.16,0.16 -0.24,0.2 -0.28,0.2 -0.32,0.36 0,0.04 -0.16,0.12 l -0.16,0.16 q -0.12,0.08 -0.2,0.16 -0.08,0.08 -0.16,0.16 l -0.48,0.68 q -0.52,0.52 -0.72,1 -0.2,0.48 -0.4,1.16 -0.16,0.56 -0.2,1.12 -0.04,0.52 -0.12,0.96 -0.08,0.44 -0.16,0.72 -0.08,0.28 -0.16,0.52 -0.04,0.16 -0.08,0.32 -0.04,0.16 -0.08,0.36 -0.08,0.32 -0.08,0.48 0,0.16 0.08,0.56 0.04,0.12 0.04,0.36 0,0.16 -0.04,0.32 0,0.12 -0.04,0.32 -0.04,0.32 -0.12,0.64 -0.04,0.32 -0.08,0.64 -0.04,0.16 -0.04,0.32 0,0.16 0,0.32 0,0.4 0.04,0.6 0,0.32 -0.04,0.52 0,0.2 -0.08,0.4 -0.12,0.44 -0.36,0.96 -0.2,0.56 -0.48,1.08 -0.16,0.32 -0.44,0.6 -0.24,0.28 -0.52,0.6 l -1,0.96 q -0.64,0.6 -1.52,1.12 -0.88,0.52 -1.4,0.64 -0.52,0.12 -0.96,0.36 -0.44,0.28 -0.88,0.56 -0.12,0.08 -0.36,0.16 -0.08,0.04 -0.2,0.08 -0.12,0.04 -0.32,0.04 -0.4,0 -0.92,-0.28 -0.68,-0.36 -1.36,-1.24 -0.48,-0.64 -0.8,-1.32 -0.28,-0.68 -0.28,-1.4 0,-0.84 0.44,-1.6 0.4,-0.64 0.92,-1.12 0.48,-0.4 0.92,-0.4 0.12,-0.04 0.24,-0.04 0.28,0 0.8,0.28 0.56,0.28 0.88,0.64 0.24,0.28 0.36,0.96 0.16,0.64 0.16,1.28 l 0,0.24 q 0,0.44 0.16,0.92 0.2,0.48 0.68,0.48 0.6,0 1.36,-0.4 0.8,-0.44 1.12,-0.96 0.24,-0.44 0.56,-1.12 0.32,-0.72 0.44,-1.16 0.12,-0.44 0.2,-0.8 0.12,-0.4 0.24,-0.72 0.32,-0.76 0.32,-1.84 0,-1 -0.28,-1.76 -0.16,-0.4 -0.28,-1 -0.12,-0.64 -0.12,-1.32 0,-0.32 0.04,-0.64 0.04,-0.32 0.16,-0.56 0.2,-0.44 0.44,-0.84 0.28,-0.44 0.52,-0.8 0.12,-0.2 0.28,-0.36 0.16,-0.16 0.28,-0.36 0.04,-0.08 0.12,-0.2 0.12,-0.12 0.24,-0.28 l 0.36,-0.48 q 0.16,-0.24 0.28,-0.44 0.16,-0.2 0.36,-0.4 0.4,-0.44 0.44,-0.68 0,-0.08 0,-0.08 0.04,-0.04 0.04,-0.08 0,-0.32 -0.24,-0.44 -0.2,-0.12 -0.36,-0.2 l -0.48,-0.16 q -0.24,-0.04 -0.48,-0.24 -0.24,-0.2 -0.52,-0.36 -0.28,-0.16 -0.48,-0.4 -0.2,-0.2 -0.36,-0.52 -0.12,-0.36 -0.2,-0.92 l -0.16,-1.08 q -0.12,-0.76 -0.56,-1.24 -0.4,-0.52 -1.28,-0.56 l -0.28,0 q -0.92,0 -1.4,0.4 -0.48,0.36 -0.8,1.16 -0.32,0.72 -0.32,1.44 0,0.56 0.2,1.04 0.24,0.48 0.8,0.8 0.4,0.24 0.8,0.36 l 0.64,0.16 q 0.4,0.16 0.44,0.4 0,0.08 0,0.12 0.04,0 0.04,0.08 0,0.4 -0.32,0.8 -0.32,0.4 -1.12,0.6 -0.32,0.12 -0.6,0.12 -0.32,0 -0.6,-0.12 -0.72,-0.24 -1.52,-1.08 -0.28,-0.28 -0.56,-0.8 -0.28,-0.56 -0.48,-1.24 -0.2,-0.48 -0.28,-0.88 -0.04,-0.44 -0.04,-0.76 0,-0.28 0.04,-0.36 0.28,-0.64 0.64,-1.16 0.4,-0.52 1,-0.92 0.4,-0.24 0.68,-0.52 0.28,-0.28 0.6,-0.48 l 0.32,-0.2 q 0.52,-0.4 1.12,-0.4 0.52,0 0.88,-0.12 l 0.64,-0.24 q 0.16,-0.08 0.32,-0.08 0.2,0 0.4,0 l 0.48,0 q 0.44,0 1.12,0.44 0.72,0.4 1.32,1.04 0.52,0.56 0.6,1.04 0.12,0.44 0.12,1.16 0,0.76 0.08,1.44 0.08,0.68 0.64,1.12 0.28,0.28 0.64,0.28 0.36,0 0.72,-0.24 l 0.44,-0.28 1.4,-1.16 q 0.16,-0.12 0.36,-0.32 0.2,-0.2 0.4,-0.4 0.24,-0.2 0.48,-0.4 0.24,-0.24 0.56,-0.44 0.72,-0.52 1.32,-0.68 0.4,-0.12 0.6,-0.16 0.2,-0.04 0.28,-0.04 0.08,0.04 0.08,0.04 l 0,0.04 0.08,0.2 z"
       style="font-style:normal;font-variant:normal;font-weight:normal;font-stretch:normal;font-size:medium;font-family:'Old Man Eloquent';-inkscape-font-specification:'Old Man Eloquent'"
       id="path4220"
       inkscape:connector-curvature="0" /><path
       d="m 306.6602,508.05339 q 0,0.2 -0.04,0.52 -0.04,0.28 -0.2,0.68 -0.36,1.04 -0.88,2 -0.48,0.92 -0.92,1.8 -0.24,0.4 -0.32,0.76 -0.04,0.36 -0.08,0.68 0,0.32 0,0.6 0,0.28 -0.08,0.6 -0.04,0.16 -0.04,0.6 l 0,0.92 q 0,0.48 0,1.04 0,0.56 -0.08,1.12 -0.08,0.36 -0.16,0.76 -0.04,0.4 -0.12,0.84 -0.12,0.44 -0.28,0.84 -0.16,0.4 -0.24,0.88 -0.08,0.4 -0.2,0.68 -0.12,0.28 -0.28,0.56 -0.16,0.32 -0.32,0.6 -0.16,0.28 -0.32,0.6 -0.52,1.04 -1.04,1.64 -0.48,0.56 -0.88,0.72 -0.12,0.04 -0.24,0.12 -0.12,0.04 -0.24,0.12 -0.08,0.08 -0.2,0.16 -0.12,0.08 -0.28,0.16 -0.28,0.16 -0.68,0.28 -0.36,0.12 -0.92,0.16 -0.44,0.04 -0.8,0.16 -0.32,0.12 -0.6,0.24 -0.2,0.08 -0.44,0.16 -0.24,0.12 -0.44,0.12 -0.52,0.04 -0.8,0.08 -0.28,0.08 -0.48,0.16 -0.44,0.16 -0.88,0.16 -0.36,0 -0.68,0 -0.32,0.04 -0.6,0.04 -0.6,0 -0.76,-0.12 -0.32,-0.2 -0.68,-0.36 -0.32,-0.16 -0.56,-0.44 -0.4,-0.4 -0.4,-1.08 0,-0.28 0.04,-0.44 0.08,-0.68 0.12,-1.4 0.04,-0.72 0.08,-1.28 0.08,-0.56 0.12,-0.96 0.08,-0.4 0.2,-0.72 0.12,-0.32 0.4,-0.6 0.28,-0.32 0.64,-0.64 0.64,-0.52 1.16,-0.64 0.48,0 1.12,0.4 0.32,0.24 0.6,0.52 0.28,0.28 0.52,0.52 0.44,0.48 0.76,1.12 0.36,0.64 0.36,1.2 l 0,0.16 q -0.04,0.2 -0.08,0.36 0,0.12 0,0.2 -0.04,0.08 -0.04,0.24 0,0.12 0,0.24 l 0,0.48 q 0,0.16 0.04,0.24 0.16,0.36 0.84,0.36 l 0.32,0 q 0.4,-0.08 1.04,-0.16 0.68,-0.08 1.12,-0.28 0.48,-0.2 0.88,-0.56 0.4,-0.4 0.72,-1.12 0.2,-0.44 0.32,-0.92 0.12,-0.52 0.2,-1.08 0.08,-0.44 0.16,-0.88 0.08,-0.44 0.16,-0.8 0.08,-0.32 0.12,-0.64 0.04,-0.36 0.08,-0.72 0,-0.32 0,-0.64 0.04,-0.32 0.08,-0.6 l 0,-0.8 q 0,-0.24 0.04,-0.44 0.04,-0.24 0.04,-0.44 0,-0.08 -0.04,-0.12 0,-0.04 0,-0.12 -0.04,-0.48 -0.84,-0.6 -0.2,-0.04 -0.48,-0.04 -0.24,0 -0.44,-0.08 -0.44,-0.16 -1,-0.6 -0.56,-0.48 -0.96,-1.04 -0.28,-0.4 -0.44,-0.72 -0.12,-0.32 -0.16,-0.52 l 0,-0.24 q 0,-0.32 0.04,-0.64 0.04,-0.36 0.12,-0.8 l 0.48,-1.92 q 0.2,-0.72 0.56,-1.6 0.36,-0.92 1.12,-1.24 0.64,-0.24 1.24,-0.48 0.64,-0.28 1.2,-0.72 0.56,-0.44 1.04,-0.76 0.52,-0.32 1.08,-0.32 0.28,0 0.44,0.04 0.2,0.08 0.36,0.12 0.2,0 0.4,0.04 0.2,0.08 0.32,0.12 0.16,0 0.28,0.08 0.2,0.12 0.36,0.4 0.2,0.28 0.24,0.88 0.04,0.48 0,0.88 0,0.4 0.08,0.96 l 0,0.2 z m -2.72,-0.08 q 0,-0.24 -0.08,-0.48 -0.08,-0.24 -0.4,-0.44 -0.08,-0.04 -0.24,-0.04 -0.32,0 -0.8,0.2 -0.24,0.16 -0.48,0.32 -0.24,0.12 -0.48,0.24 -0.2,0.08 -0.48,0.36 -0.24,0.24 -0.44,0.56 -0.2,0.32 -0.36,0.92 -0.12,0.6 -0.2,0.96 -0.04,0.16 -0.04,0.48 0,0.72 0.32,1.4 0.36,0.64 1.16,0.64 0.52,0 0.72,-0.44 0.24,-0.48 0.32,-1 0,-0.08 0,-0.12 0.04,-0.04 0.04,-0.12 0.08,-0.2 0.16,-0.36 0.12,-0.2 0.24,-0.4 l 0.48,-0.84 q 0.16,-0.28 0.28,-0.56 0.16,-0.28 0.2,-0.6 0,-0.2 0.04,-0.36 0.04,-0.16 0.04,-0.32 z m -10.56,16.56 q 0,-0.32 -0.28,-0.8 -0.24,-0.52 -0.76,-0.52 -0.4,0 -0.8,0.36 -0.4,0.36 -0.4,1.12 l 0,0.4 q 0.04,0.44 0.08,0.8 0.08,0.36 0.4,0.68 0.24,0.28 0.76,0.28 l 0.2,0 q 0.32,-0.08 0.44,-0.32 0.16,-0.28 0.24,-0.52 0.08,-0.16 0.08,-0.72 0.04,-0.56 0.04,-0.76 z"
       style="font-style:normal;font-variant:normal;font-weight:normal;font-stretch:normal;font-size:medium;font-family:'Old Man Eloquent';-inkscape-font-specification:'Old Man Eloquent'"
       id="path4222"
       inkscape:connector-curvature="0" /><path
       d="m 330.8752,523.81339 q -0.04,0.08 -0.12,0.28 -0.08,0.16 -0.16,0.32 -0.08,0.16 -0.28,0.4 -0.2,0.24 -0.4,0.48 l -0.52,0.6 q -0.36,0.4 -0.6,0.6 -0.24,0.2 -0.56,0.52 -0.28,0.28 -0.72,0.72 -0.4,0.4 -0.84,0.8 -0.44,0.4 -0.88,0.72 -0.44,0.32 -0.8,0.44 -0.28,0.08 -0.52,0.16 -0.2,0.08 -0.4,0.16 -0.32,0.16 -0.72,0.16 -0.28,0 -0.48,0.04 -0.2,0.04 -0.44,0.08 -0.12,0.04 -0.24,0.04 -0.08,0.04 -0.2,0.04 -0.08,0 -0.2,-0.04 -0.08,0 -0.16,0 -0.96,-0.24 -1.4,-0.64 -0.44,-0.32 -0.44,-0.92 0,-0.24 0.04,-0.4 0.08,-0.52 0.2,-0.8 0.12,-0.32 0.24,-0.52 0.16,-0.28 0.4,-0.52 0.24,-0.24 0.44,-0.44 0.52,-0.6 0.8,-1.32 0.2,-0.44 0.24,-0.84 0.08,-0.44 0.08,-0.8 0,-0.68 -0.24,-0.96 -0.2,-0.28 -0.8,-0.6 -0.32,-0.12 -0.56,-0.12 -0.24,0 -0.32,0.04 -0.12,0 -0.36,0.08 l -0.4,0 q -0.4,0 -0.72,0.24 -0.32,0.2 -0.52,0.52 -0.12,0.2 -0.24,0.44 -0.08,0.24 -0.16,0.44 l -0.4,0.88 q -0.36,0.68 -1.04,1.64 -0.32,0.4 -0.44,0.6 -0.12,0.2 -0.28,0.4 -0.12,0.2 -0.32,0.4 -0.16,0.16 -0.56,0.52 -0.84,0.76 -1.56,0.92 -0.36,0.12 -0.72,0.16 -0.36,0.08 -0.72,0.16 -0.24,0.08 -0.44,0.08 -0.2,0 -0.4,0 l -1.2,0.08 q -0.52,0 -1.24,-0.24 -0.68,-0.24 -1.12,-0.44 l -0.48,-0.16 q -0.08,-0.08 -0.24,-0.16 -0.12,-0.08 -0.28,-0.2 -0.12,-0.12 -0.44,-0.36 -0.56,-0.44 -0.8,-0.68 -0.24,-0.28 -0.56,-0.56 -0.44,-0.44 -0.68,-0.8 -0.24,-0.4 -0.24,-1 0,-0.2 0,-0.4 0,-0.2 0.08,-0.44 0.2,-1.04 1.08,-1.76 0.92,-0.72 1.8,-1.04 0.4,-0.16 0.68,-0.24 0.28,-0.08 0.52,-0.12 0.24,-0.08 0.48,-0.12 0.28,-0.08 0.64,-0.16 0.28,-0.04 0.6,-0.04 0.36,-0.04 0.72,-0.04 l 0.52,0 q 1.12,0.08 1.52,0.36 0.2,0.12 0.24,0.44 0.08,0.28 0.08,0.64 0,0.48 -0.12,1 -0.12,0.48 -0.44,0.8 -0.16,0.16 -0.28,0.32 -0.08,0.12 -0.2,0.28 -0.24,0.32 -0.44,0.68 -0.2,0.32 -0.56,0.6 -0.28,0.2 -0.48,0.32 -0.16,0.08 -0.48,0.16 -0.04,0 -0.08,0.04 -0.04,0 -0.08,0 -0.32,0 -0.64,-0.32 -0.28,-0.32 -0.4,-0.76 -0.08,-0.48 -0.08,-0.68 0.12,-0.44 0.24,-0.68 0.12,-0.24 0.16,-0.36 0.04,-0.08 0.04,-0.24 0,-0.44 -0.52,-0.56 -0.32,-0.12 -0.56,-0.12 -0.2,0 -0.4,0.04 -0.16,0.04 -0.36,0.12 l -0.4,0.2 q -0.84,0.44 -0.84,1.4 0,0.48 0.16,0.84 0.12,0.36 0.44,0.72 0.32,0.36 0.68,0.68 0.4,0.28 0.8,0.52 0.44,0.24 0.8,0.32 0.48,0.12 0.84,0.2 0.4,0.04 0.72,0.08 0.32,0.04 0.52,0.04 0.2,0 0.4,0 0.68,0 1.36,-0.36 0.72,-0.36 1.24,-0.92 0.48,-0.56 0.8,-1.08 0.32,-0.56 0.64,-1.08 0.2,-0.36 0.44,-0.96 0.28,-0.64 0.28,-1.32 0,-0.36 -0.12,-0.72 -0.12,-0.36 -0.12,-0.68 0,-0.28 0.04,-0.44 0.04,-0.32 0.08,-0.6 0.08,-0.28 0.16,-0.64 0.08,-0.4 0.16,-0.92 0.08,-0.56 0.2,-1.2 0.08,-0.48 0.24,-0.92 0.16,-0.48 0.32,-0.92 0.2,-0.56 0.36,-0.92 0.2,-0.4 0.52,-0.72 0.28,-0.32 0.48,-0.64 0.2,-0.36 0.4,-0.68 0.24,-0.4 0.36,-0.64 0.16,-0.28 0.24,-0.48 0.08,-0.2 0.16,-0.32 0.08,-0.16 0.24,-0.36 0.32,-0.32 0.4,-0.56 0.12,-0.28 0.12,-0.48 0,-0.4 -0.36,-0.56 -0.36,-0.2 -0.76,-0.28 -0.32,-0.04 -0.76,-0.08 -0.4,-0.04 -0.84,-0.04 -0.64,0 -1.16,0.12 -0.2,0.04 -0.32,0.08 -0.12,0 -0.28,0 -0.08,0 -0.2,0 -0.08,-0.04 -0.2,-0.04 -0.08,0 -0.2,0 -0.08,-0.04 -0.16,-0.04 -0.4,0 -0.92,0.16 -0.32,0.08 -0.8,0.28 -0.48,0.16 -0.96,0.32 -0.68,0.24 -1.24,0.56 -0.56,0.28 -0.72,0.68 -0.08,0.32 -0.08,0.4 0,0.52 0.56,0.8 0.12,0.08 0.28,0.16 0.16,0.04 0.36,0.12 l 0.72,0.2 q 0.76,0.24 1.36,0.6 0.64,0.32 0.92,0.76 0.16,0.2 0.32,0.44 0.16,0.24 0.24,0.48 0.12,0.24 0.12,0.6 0,0.28 -0.12,0.64 -0.2,0.8 -0.68,1.32 -0.44,0.48 -1.36,0.8 -0.8,0.24 -1.68,0.24 -0.6,0 -1.12,-0.08 -0.48,-0.12 -0.76,-0.28 -0.48,-0.32 -1,-0.76 -0.52,-0.48 -0.96,-0.96 -0.32,-0.32 -0.56,-0.68 -0.2,-0.4 -0.2,-0.84 0,-0.28 0.12,-0.6 0.08,-0.32 0.2,-0.88 0.16,-0.56 0.36,-1.2 0.2,-0.72 0.48,-1.24 0.32,-0.52 0.72,-0.68 0.44,-0.2 0.84,-0.44 0.4,-0.28 0.8,-0.56 0.36,-0.24 0.64,-0.4 0.28,-0.2 0.56,-0.28 0.32,-0.08 0.6,-0.24 0.32,-0.2 0.64,-0.4 0.32,-0.2 0.6,-0.32 0.32,-0.16 0.68,-0.2 0.44,-0.04 1.08,-0.16 0.64,-0.12 1.32,-0.24 0.32,-0.08 0.56,-0.12 0.28,-0.04 0.56,-0.08 l 0.96,-0.24 q 0.36,-0.12 0.76,-0.12 0.68,0 1.32,0.2 0.68,0.2 1.32,0.2 0.28,0 0.56,0 0.32,-0.04 0.64,-0.04 0.2,0 0.36,0 0.16,0 0.36,0.04 0.52,0.08 1.04,0.24 0.52,0.16 0.96,0.52 0.48,0.4 0.68,0.68 0.24,0.24 0.32,0.44 l 0.2,0.48 q 0.04,0.12 0.12,0.28 0.08,0.12 0.16,0.28 0.12,0.16 0.16,0.4 0.04,0.24 0.04,0.56 0,0.56 -0.16,1.24 -0.12,0.64 -0.44,1.12 -0.24,0.44 -0.4,0.8 -0.16,0.36 -0.28,0.68 l -0.28,1.12 q -0.04,0.2 -0.32,0.6 -0.12,0.2 -0.28,0.44 -0.12,0.2 -0.28,0.4 -0.32,0.48 -0.6,0.92 -0.24,0.44 -0.28,0.76 -0.08,0.48 -0.32,0.92 -0.24,0.44 -0.48,0.76 -0.08,0.16 -0.08,0.24 0,0.44 0.8,0.76 0.24,0.08 0.56,0.24 0.32,0.16 0.48,0.4 0.16,0.2 0.16,0.64 0,0.16 -0.04,0.32 0,0.16 -0.04,0.36 -0.08,0.44 -0.2,0.88 -0.08,0.44 -0.16,0.84 -0.08,0.32 -0.2,0.6 -0.08,0.24 -0.2,0.44 l -0.32,0.48 q -0.12,0.2 -0.28,0.6 -0.12,0.36 -0.12,0.72 0,0.24 0.08,0.44 0.12,0.2 0.4,0.28 0.32,0.08 0.48,0.08 0.16,-0.04 0.4,-0.04 0.28,0 0.52,-0.08 0.24,-0.12 0.44,-0.2 0.24,-0.12 0.48,-0.28 0.24,-0.16 0.44,-0.28 0.08,-0.04 0.24,-0.16 0.16,-0.12 0.32,-0.24 0.24,-0.24 0.56,-0.48 l 0.44,-0.36 q 0.12,-0.16 0.4,-0.4 l 0.84,-0.88 q 0.2,-0.24 0.28,-0.32 0.12,-0.12 0.28,-0.28 0.2,-0.28 0.44,-0.36 0.28,0 0.28,0.24 0,0.16 -0.04,0.24 z m -6.72,-13.64 q -0.28,-0.6 -0.92,-0.6 -0.08,0 -0.12,0.04 -0.04,0 -0.12,0 -0.44,0.08 -0.84,0.56 -0.4,0.48 -0.64,0.96 -0.2,0.4 -0.48,0.96 -0.28,0.56 -0.6,0.84 -0.2,0.12 -0.32,0.36 -0.12,0.2 -0.24,0.44 -0.16,0.24 -0.28,0.52 -0.12,0.28 -0.32,0.6 -0.32,0.68 -0.48,1.2 -0.16,0.48 -0.24,1.08 -0.04,0.2 -0.08,0.4 0,0.16 0,0.36 0,0.48 0.16,0.76 0.16,0.24 0.28,0.4 0.12,0.12 0.4,0.12 0.28,0 0.44,-0.04 0.4,-0.08 0.56,-0.16 0.2,-0.12 0.36,-0.32 0.12,-0.12 0.32,-0.48 0.24,-0.36 0.4,-0.56 0.2,-0.32 0.32,-0.52 0.16,-0.2 0.28,-0.44 0.2,-0.32 0.44,-1.08 l 0.2,-0.56 0.36,-0.6 q 0.2,-0.36 0.44,-1.04 0.28,-0.72 0.4,-1.16 0.04,-0.24 0.12,-0.48 0.08,-0.28 0.16,-0.56 0.12,-0.36 0.12,-0.68 0,-0.16 -0.08,-0.32 z m -11.8,3.92 q -0.28,-0.68 -0.88,-1.04 -0.56,-0.36 -1.12,-0.6 -0.16,-0.08 -0.44,-0.08 -0.8,0 -0.8,0.92 l 0,0.2 q 0.04,0.24 0.08,0.48 0.04,0.2 0.12,0.4 0.08,0.2 0.2,0.44 0.16,0.2 0.4,0.52 0.28,0.4 0.44,0.56 0.2,0.12 0.36,0.16 0.08,0.04 0.2,0.04 0.12,0 0.2,-0.04 0.08,0 0.4,-0.08 0.52,-0.08 0.76,-0.36 0.24,-0.32 0.24,-0.76 0,-0.44 -0.16,-0.76 z"
       style="font-style:normal;font-variant:normal;font-weight:normal;font-stretch:normal;font-size:medium;font-family:'Old Man Eloquent';-inkscape-font-specification:'Old Man Eloquent'"
       id="path4224"
       inkscape:connector-curvature="0" /><path
       d="m 348.45145,523.53339 q 0,0.2 -0.08,0.4 -0.08,0.2 -0.16,0.32 l -0.44,0.64 q -0.04,0.08 -0.28,0.32 -0.08,0.08 -0.2,0.24 -0.12,0.12 -0.2,0.2 -0.28,0.32 -0.52,0.6 -0.2,0.24 -0.52,0.52 -0.16,0.12 -0.32,0.24 -0.12,0.12 -0.32,0.2 -0.16,0.12 -0.32,0.24 -0.12,0.12 -0.24,0.28 -0.08,0.16 -0.32,0.24 -0.2,0.08 -0.52,0.2 -0.32,0.12 -0.72,0.2 -0.36,0.12 -0.64,0.28 -0.44,0.2 -0.84,0.44 -0.4,0.24 -0.68,0.56 -0.2,0.24 -0.88,0.24 -0.16,0 -0.32,0 -0.12,0 -0.32,-0.04 l -1.28,0 q -0.4,0 -0.96,-0.12 -0.52,-0.08 -1.28,-0.32 -0.56,-0.2 -1.04,-0.4 -0.48,-0.2 -0.8,-0.44 -0.68,-0.48 -1.32,-1.12 -0.6,-0.64 -0.8,-1.52 -0.08,-0.28 -0.12,-0.48 -0.04,-0.24 -0.04,-0.44 0,-0.52 0.32,-0.88 0.16,-0.2 0.4,-0.52 0.28,-0.32 0.52,-0.64 0.28,-0.36 0.48,-0.72 0.2,-0.36 0.24,-0.64 0,-0.28 -0.12,-0.52 -0.12,-0.24 -0.32,-0.48 l -0.4,-0.44 q -0.12,-0.16 -0.24,-0.28 -0.12,-0.16 -0.2,-0.36 -0.48,-0.8 -0.72,-1.6 -0.04,-0.12 -0.08,-0.2 0,-0.08 0,-0.16 0,-0.08 0,-0.08 0.04,-0.04 0.04,-0.12 l 0.16,-0.72 q 0.08,-0.28 0.16,-0.6 0.08,-0.32 0.24,-0.64 l 0.68,-1.52 q 0.2,-0.52 0.48,-1.04 0.28,-0.52 0.48,-1.08 0.28,-0.76 0.64,-1.36 0.36,-0.64 0.72,-1.12 0.44,-0.64 0.96,-1.04 0.52,-0.44 0.8,-0.56 0.32,-0.12 0.56,-0.32 0.24,-0.2 0.48,-0.44 0.2,-0.2 0.44,-0.36 0.28,-0.2 0.72,-0.4 0.48,-0.2 0.92,-0.36 0.44,-0.2 0.88,-0.36 0.52,-0.24 0.92,-0.24 0.2,0 0.28,0.04 0.32,0.08 0.64,0.28 0.36,0.16 0.72,0.32 0.4,0.2 0.72,0.36 0.32,0.12 0.52,0.16 0.12,0.04 0.36,0.32 0.28,0.24 0.56,0.64 0.32,0.36 0.6,0.8 0.28,0.44 0.48,0.8 0.24,0.52 0.32,1.4 0,0.44 0,0.8 0,0.36 0.08,0.64 l 0,0.16 q 0,0.2 -0.04,0.4 -0.04,0.2 -0.12,0.4 -0.08,0.36 -0.2,0.68 -0.08,0.32 -0.12,0.68 0,0.08 0,0.2 0,0.08 -0.04,0.2 -0.12,0.96 -1.04,1.56 -0.6,0.4 -1.04,0.6 -0.4,0.2 -0.84,0.2 -0.24,0 -0.36,-0.04 -0.12,-0.04 -0.32,-0.04 -0.32,0 -0.6,0.08 -0.28,0.08 -0.56,0.16 -0.2,0.08 -0.4,0.12 -0.16,0.04 -0.32,0.04 -0.24,0 -0.48,-0.12 -0.24,-0.16 -0.4,-0.44 l -0.4,-0.88 q -0.2,-0.44 -0.28,-0.84 -0.08,-0.44 -0.08,-0.76 l 0,-0.16 q 0,-0.28 0.2,-0.68 0.2,-0.44 0.6,-0.84 0.12,-0.12 0.2,-0.24 0.12,-0.12 0.2,-0.24 l 0.32,-0.32 q 0.28,-0.28 0.84,-0.48 0.36,-0.12 0.84,-0.12 0.28,0 0.52,0.04 0.28,0 0.48,0.04 l 0.24,0 q 0.48,0 0.68,-0.48 0.08,-0.24 0.08,-0.4 0,-0.2 -0.04,-0.36 -0.04,-0.2 -0.08,-0.32 -0.16,-0.52 -0.48,-0.8 -0.32,-0.32 -0.64,-0.48 -0.36,-0.2 -0.64,-0.24 l -0.36,-0.12 q -0.36,-0.12 -0.72,-0.12 -0.8,0 -1.56,0.44 -0.76,0.4 -1.24,0.92 l -0.72,0.68 q -0.16,0.16 -0.32,0.32 -0.12,0.12 -0.24,0.32 -0.48,0.64 -0.72,1.92 -0.08,0.4 -0.36,0.8 -0.24,0.4 -0.44,0.72 -0.2,0.28 -0.44,0.52 -0.2,0.24 -0.4,0.52 -0.48,0.56 -0.6,0.88 -0.08,0.28 -0.24,0.64 -0.12,0.36 -0.28,0.8 -0.08,0.2 -0.12,0.48 -0.04,0.24 -0.04,0.52 0,0.48 0.2,0.76 0.24,0.32 0.56,0.68 0.32,0.32 0.84,0.32 0.24,0 0.72,-0.2 0.56,-0.28 1.28,-0.28 0.8,0 1.12,0.24 0.2,0.16 0.48,0.4 0.28,0.2 0.28,0.52 0,0.16 -0.12,0.32 -0.36,0.48 -0.84,0.72 -0.48,0.2 -0.92,0.4 -0.52,0.16 -1.08,0.52 -0.56,0.32 -0.76,0.56 -0.12,0.16 -0.36,0.52 -0.2,0.36 -0.28,0.92 -0.04,0.16 -0.04,0.56 0,0.32 0.04,0.64 0.04,0.28 0.12,0.56 0.2,0.56 0.68,0.84 0.52,0.24 1,0.32 0.32,0.08 0.68,0.16 0.36,0.04 0.8,0.12 0.2,0.04 0.72,0.04 0.2,0 0.4,0 0.24,0 0.48,-0.04 0.32,-0.04 1.12,-0.16 0.84,-0.16 1.4,-0.44 0.16,-0.08 0.36,-0.12 0.2,-0.08 0.4,-0.16 l 0.72,-0.36 q 0.24,-0.12 0.48,-0.24 0.24,-0.12 0.36,-0.2 0.44,-0.32 0.68,-0.56 0.28,-0.28 0.6,-0.6 0.16,-0.12 0.28,-0.24 0.12,-0.16 0.24,-0.32 l 0.6,-0.64 0.44,-0.4 q 0.16,-0.12 0.28,-0.12 0.12,0 0.16,0.08 0.04,0.08 0.04,0.12 z m -3.92,-9.04 q 0.04,-0.12 0.04,-0.28 0,-0.48 -0.44,-0.76 -0.44,-0.32 -0.92,-0.4 l -0.16,0 q -0.64,0 -1,0.36 -0.4,0.4 -0.4,0.88 0,0.24 0.12,0.4 0.08,0.12 0.16,0.28 0.12,0.12 0.24,0.2 0.16,0.12 0.32,0.16 0.2,0 0.4,0 0.48,-0.04 0.96,-0.16 0.48,-0.12 0.68,-0.68 z"
       style="font-style:normal;font-variant:normal;font-weight:normal;font-stretch:normal;font-size:medium;font-family:'Old Man Eloquent';-inkscape-font-specification:'Old Man Eloquent'"
       id="path4226"
       inkscape:connector-curvature="0" /><circle
       cx="266.5"
       cy="386.14001"
       r="4.5"
       id="circle50" /><line
       x1="424"
       y1="156.64"
       x2="424"
       y2="57.639999"
       id="line52"
       style="fill:none;stroke:#000000;stroke-width:2" /><line
       x1="379"
       y1="111.64"
       x2="379"
       y2="57.639999"
       id="line54"
       style="fill:none;stroke:#000000;stroke-width:2" /><rect
       x="370"
       y="39.639999"
       width="63"
       height="18"
       id="rect56"
       style="fill:none;stroke:#000000;stroke-width:2" /></g></svg>